<?xml version="1.0" encoding="utf-8"?>
<!-- Generator: Adobe Illustrator 24.0.1, SVG Export Plug-In . SVG Version: 6.00 Build 0)  -->
<svg version="1.1" id="图层_1" xmlns="http://www.w3.org/2000/svg" xmlns:xlink="http://www.w3.org/1999/xlink" x="0px" y="0px"
	 viewBox="0 0 600 60" style="enable-background:new 0 0 600 60;" xml:space="preserve">
<style type="text/css">
	.st0{fill:#91B493;}
	.st1{fill-rule:evenodd;clip-rule:evenodd;fill:#0C474F;}
	.st2{fill-rule:evenodd;clip-rule:evenodd;fill:#85D85D;}
	.st3{fill-rule:evenodd;clip-rule:evenodd;fill-opacity:0.18;}
	.st4{fill-rule:evenodd;clip-rule:evenodd;fill:#AAE78D;}
	.st5{filter:url(#Adobe_OpacityMaskFilter);}
	.st6{fill-rule:evenodd;clip-rule:evenodd;fill:#FFFFFF;}
	.st7{mask:url(#mask-4_1_);}
	.st8{fill:#FFFFFF;}
</style>
<circle class="st0" cx="30" cy="30" r="30"/>
<circle class="st0" cx="570" cy="30" r="30"/>
<rect x="30" y="-0.1" class="st0" width="540" height="60"/>
<g id="Icon" transform="translate(-82.000000, -96.000000)">
	<g id="draft" transform="translate(82.000000, 96.000000)">
		<g id="paper">
			<path id="Rectangle-16" class="st1" d="M75.5,39.7h2.2c1.2,0,2.2,1,2.2,2.2v4.5c0,1.2-1,2.2-2.2,2.2h-2.2V39.7z"/>
			<g id="Group-3" transform="translate(24.000000, 0.000000)">
				<g id="Combined-Shape">
					<path id="path-1_1_" class="st2" d="M20.3,45.1c0-0.1,0-0.2,0-0.2c0-0.1,0-0.2,0-0.3v-29c0-0.1,0-0.2,0-0.3c0-0.1,0-0.2,0-0.3
						c0-2,1.6-3.6,3.6-3.6c0.1,0,0.2,0,0.3,0c0.1,0,0.2,0,0.3,0h22.9c0.1,0,0.2,0,0.3,0c0.1,0,0.2,0,0.3,0c2,0,3.6,1.6,3.6,3.6
						c0,0.1,0,0.2,0,0.3c0,0.1,0,0.2,0,0.3v30.1c0,3.1,1.7,3.1,1.7,3.1H23.4c0,0-1.9,0-2.7-2C20.4,46.2,20.3,45.7,20.3,45.1z"/>
				</g>
			</g>
			<path id="Combined-Shape_1_" class="st3" d="M72.1,11.3c-0.1,0-0.1,0-0.2,0c-2,0-3.6,1.6-3.6,3.6s1.6,3.6,3.6,3.6
				c0.1,0,0.1,0,0.2,0c-1.1-0.8-1.8-2.1-1.8-3.6S71,12.2,72.1,11.3z"/>
			<path id="Combined-Shape_2_" class="st1" d="M71.9,20.3H44.5c-2.5,0-4.5-2-4.5-4.5s2-4.5,4.5-4.5h27.4c-2,0-3.6,1.6-3.6,3.6
				s1.6,3.6,3.6,3.6c0.5,0,0.9,0.4,0.9,0.9S72.4,20.3,71.9,20.3z"/>
		</g>
		<g id="words" transform="translate(39.000000, 66.000000)">
			<g id="Group-4">
				<path id="Rectangle-5" class="st4" d="M23.6-37.8h9.3c0.5,0,0.9,0.4,0.9,0.9l0,0c0,0.5-0.4,0.9-0.9,0.9h-9.3
					c-0.5,0-0.9-0.4-0.9-0.9l0,0C22.7-37.4,23.1-37.8,23.6-37.8z"/>
				<path id="Rectangle-5-Copy-5" class="st4" d="M23.6-42.8h9.3c0.5,0,0.9,0.4,0.9,0.9l0,0c0,0.5-0.4,0.9-0.9,0.9h-9.3
					c-0.5,0-0.9-0.4-0.9-0.9l0,0C22.7-42.4,23.1-42.8,23.6-42.8z"/>
				<path id="Rectangle-5-Copy" class="st4" d="M23.6-32.8h9.3c0.5,0,0.9,0.4,0.9,0.9l0,0c0,0.5-0.4,0.9-0.9,0.9h-9.3
					c-0.5,0-0.9-0.4-0.9-0.9l0,0C22.7-32.4,23.1-32.8,23.6-32.8z"/>
				<path id="Rectangle-5-Copy-2" class="st4" d="M8.9-27.7h24c0.5,0,0.9,0.4,0.9,0.9l0,0c0,0.5-0.4,0.9-0.9,0.9h-24
					C8.4-26,8-26.4,8-26.9l0,0C8-27.3,8.4-27.7,8.9-27.7z"/>
				<path id="Rectangle-5-Copy-3" class="st4" d="M8.9-22.7h24c0.5,0,0.9,0.4,0.9,0.9l0,0c0,0.5-0.4,0.9-0.9,0.9h-24
					c-0.5,0-0.9-0.4-0.9-0.9l0,0C8-22.3,8.4-22.7,8.9-22.7z"/>
			</g>
		</g>
		<g id="shiled" transform="translate(39.000000, 66.000000)">
			<g id="Rectangle-3">
				<path id="path-3_1_" class="st1" d="M8-42.1c0-0.4,0.3-0.7,0.7-0.7h10c0.4,0,0.7,0.3,0.7,0.7v7.7c0,0.4-0.3,0.9-0.6,1.1l-4.8,3
					c-0.2,0.1-0.4,0.1-0.6,0l-4.8-3C8.3-33.5,8-34,8-34.4V-42.1z"/>
			</g>
			<defs>
				<filter id="Adobe_OpacityMaskFilter" filterUnits="userSpaceOnUse" x="10.6" y="-39.8" width="6.3" height="4.8">
					<feColorMatrix  type="matrix" values="1 0 0 0 0  0 1 0 0 0  0 0 1 0 0  0 0 0 1 0"/>
				</filter>
			</defs>
			<mask maskUnits="userSpaceOnUse" x="10.6" y="-39.8" width="6.3" height="4.8" id="mask-4_1_">
				<g class="st5">
					<path id="path-3_2_" class="st6" d="M8-42.1c0-0.4,0.3-0.7,0.7-0.7h10c0.4,0,0.7,0.3,0.7,0.7v7.7c0,0.4-0.3,0.9-0.6,1.1l-4.8,3
						c-0.2,0.1-0.4,0.1-0.6,0l-4.8-3C8.3-33.5,8-34,8-34.4V-42.1z"/>
				</g>
			</mask>
			<g id="checkmark" class="st7">
				<g transform="translate(14.000000, 16.000000)">
					
						<rect id="Rectangle-11" x="-2.4" y="-54.3" transform="matrix(0.7071 -0.7071 0.7071 0.7071 36.6894 -16.6795)" class="st6" width="1.3" height="3.4"/>
					
						<rect id="Rectangle-11-Copy" x="-2.1" y="-54.1" transform="matrix(0.7071 -0.7071 0.7071 0.7071 37.9432 -15.2671)" class="st6" width="5.4" height="1.3"/>
				</g>
			</g>
		</g>
	</g>
</g>
<g>
	<path class="st8" d="M100.3,21.6h5c0.8,0,1.6,0.2,2.3,0.6c0.7,0.4,1.3,0.9,1.7,1.6c0.4,0.7,0.6,1.4,0.6,2.3s-0.2,1.6-0.6,2.3
		c-0.4,0.7-1,1.2-1.7,1.6c-0.7,0.4-1.5,0.6-2.3,0.6h-2.7V36h-2.2V21.6z M105.3,28.3c0.5,0,0.9-0.1,1.3-0.3c0.4-0.2,0.6-0.5,0.8-0.9
		c0.2-0.3,0.3-0.7,0.3-1.1c0-0.4-0.1-0.7-0.3-1.1c-0.2-0.3-0.5-0.6-0.8-0.8s-0.8-0.3-1.3-0.3h-2.8v4.5H105.3z"/>
	<path class="st8" d="M112.6,35.8c-0.6-0.3-1-0.7-1.3-1.2c-0.3-0.5-0.5-1.1-0.5-1.8c0-1.1,0.4-1.9,1.2-2.5c0.8-0.6,1.8-0.9,3-0.9
		c0.6,0,1.1,0.1,1.6,0.2c0.5,0.1,0.9,0.2,1.1,0.4v-0.5c0-0.6-0.2-1.1-0.7-1.5c-0.5-0.4-1.1-0.6-1.8-0.6c-0.5,0-1,0.1-1.5,0.3
		s-0.8,0.5-1.1,0.9l-1.5-1.2c0.5-0.6,1-1.1,1.8-1.5c0.7-0.3,1.5-0.5,2.4-0.5c1.5,0,2.6,0.4,3.4,1.1c0.8,0.7,1.2,1.8,1.2,3.1V36h-2.2
		v-1.2h-0.1c-0.3,0.4-0.7,0.8-1.2,1.1s-1.1,0.4-1.8,0.4C113.9,36.3,113.2,36.1,112.6,35.8z M116.4,34.1c0.4-0.3,0.8-0.6,1-1
		c0.2-0.4,0.4-0.9,0.4-1.4c-0.3-0.2-0.7-0.3-1.1-0.4c-0.4-0.1-0.8-0.2-1.3-0.2c-0.8,0-1.4,0.2-1.8,0.5c-0.4,0.3-0.6,0.8-0.6,1.3
		c0,0.5,0.2,0.8,0.5,1.1s0.8,0.5,1.4,0.5C115.5,34.5,116,34.3,116.4,34.1z"/>
	<path class="st8" d="M123.1,35.5c-0.7-0.5-1.3-1.2-1.6-2l2-0.9c0.2,0.5,0.6,0.9,1,1.2c0.4,0.3,0.9,0.4,1.5,0.4c0.5,0,1-0.1,1.4-0.3
		c0.4-0.2,0.6-0.5,0.6-0.9c0-0.4-0.2-0.7-0.5-0.9s-0.8-0.4-1.5-0.6l-1.2-0.3c-0.8-0.2-1.5-0.6-2-1.1c-0.5-0.5-0.8-1.1-0.8-1.9
		c0-0.6,0.2-1.1,0.5-1.6c0.4-0.5,0.8-0.8,1.4-1s1.3-0.4,2-0.4c0.9,0,1.8,0.2,2.5,0.6c0.7,0.4,1.2,0.9,1.6,1.7l-1.9,0.8
		c-0.4-0.8-1.1-1.2-2.1-1.2c-0.5,0-0.9,0.1-1.2,0.3c-0.3,0.2-0.5,0.5-0.5,0.8c0,0.3,0.1,0.6,0.4,0.8c0.3,0.2,0.6,0.4,1.1,0.5
		l1.5,0.4c1,0.3,1.8,0.6,2.3,1.1c0.5,0.5,0.8,1.1,0.8,1.9c0,0.6-0.2,1.2-0.6,1.7c-0.4,0.5-0.9,0.9-1.5,1.1c-0.6,0.3-1.3,0.4-2.1,0.4
		C124.8,36.3,123.8,36,123.1,35.5z"/>
	<path class="st8" d="M132.9,35.5c-0.7-0.5-1.3-1.2-1.6-2l2-0.9c0.2,0.5,0.6,0.9,1,1.2c0.4,0.3,0.9,0.4,1.5,0.4c0.5,0,1-0.1,1.4-0.3
		c0.4-0.2,0.6-0.5,0.6-0.9c0-0.4-0.2-0.7-0.5-0.9s-0.8-0.4-1.5-0.6l-1.2-0.3c-0.8-0.2-1.5-0.6-2-1.1c-0.5-0.5-0.8-1.1-0.8-1.9
		c0-0.6,0.2-1.1,0.5-1.6c0.4-0.5,0.8-0.8,1.4-1s1.3-0.4,2-0.4c0.9,0,1.8,0.2,2.5,0.6c0.7,0.4,1.2,0.9,1.6,1.7l-1.9,0.8
		c-0.4-0.8-1.1-1.2-2.1-1.2c-0.5,0-0.9,0.1-1.2,0.3c-0.3,0.2-0.5,0.5-0.5,0.8c0,0.3,0.1,0.6,0.4,0.8c0.3,0.2,0.6,0.4,1.1,0.5
		l1.5,0.4c1,0.3,1.8,0.6,2.3,1.1c0.5,0.5,0.8,1.1,0.8,1.9c0,0.6-0.2,1.2-0.6,1.7c-0.4,0.5-0.9,0.9-1.5,1.1c-0.6,0.3-1.3,0.4-2.1,0.4
		C134.6,36.3,133.6,36,132.9,35.5z"/>
	<path class="st8" d="M143.9,35.6c-0.8-0.5-1.4-1.1-1.9-1.9c-0.4-0.8-0.7-1.7-0.7-2.8c0-1,0.2-1.9,0.6-2.7c0.4-0.8,1-1.5,1.8-2
		c0.8-0.5,1.7-0.7,2.6-0.7c1,0,1.9,0.2,2.7,0.7c0.8,0.5,1.3,1.1,1.7,1.9c0.4,0.8,0.6,1.7,0.6,2.7c0,0.2,0,0.4-0.1,0.7h-7.8
		c0.1,0.9,0.4,1.7,1,2.2c0.6,0.5,1.3,0.8,2.1,0.8c0.6,0,1.2-0.1,1.6-0.4c0.5-0.3,0.8-0.7,1.1-1.2l1.9,0.9c-0.5,0.8-1.1,1.5-1.9,2
		c-0.8,0.5-1.7,0.7-2.8,0.7C145.6,36.3,144.7,36,143.9,35.6z M149.2,29.7c0-0.4-0.1-0.7-0.3-1.1c-0.2-0.4-0.5-0.6-0.9-0.9
		c-0.4-0.2-0.9-0.4-1.5-0.4c-0.7,0-1.3,0.2-1.8,0.6c-0.5,0.4-0.8,1-1,1.7H149.2z"/>
	<path class="st8" d="M155.4,35.6c-0.7-0.5-1.3-1.1-1.8-1.9c-0.4-0.8-0.6-1.8-0.6-2.8c0-1,0.2-2,0.6-2.8c0.4-0.8,1-1.5,1.8-1.9
		c0.7-0.5,1.6-0.7,2.5-0.7c0.7,0,1.4,0.2,1.9,0.5c0.6,0.3,1,0.7,1.3,1.2h0.1l-0.1-1.4v-4h2.2V36h-2.1v-1.3h-0.1
		c-0.3,0.5-0.7,0.8-1.3,1.2c-0.6,0.3-1.2,0.5-1.9,0.5C157,36.3,156.2,36,155.4,35.6z M159.7,33.8c0.5-0.3,0.8-0.7,1.1-1.2
		c0.3-0.5,0.4-1.1,0.4-1.8c0-0.7-0.1-1.3-0.4-1.8c-0.3-0.5-0.6-0.9-1.1-1.2c-0.5-0.3-1-0.4-1.5-0.4s-1,0.1-1.5,0.4
		c-0.5,0.3-0.8,0.7-1.1,1.2c-0.3,0.5-0.4,1.1-0.4,1.8c0,0.7,0.1,1.3,0.4,1.8c0.3,0.5,0.7,0.9,1.1,1.2c0.5,0.3,1,0.4,1.5,0.4
		S159.3,34.1,159.7,33.8z"/>
	<path class="st8" d="M173.5,35.9c-0.4-0.1-0.7-0.3-1-0.6c-0.6-0.6-0.9-1.4-0.9-2.3v-5.3h-1.8v-1.9h1.8v-2.9h2.2v2.9h2.5v1.9h-2.5
		v4.8c0,0.5,0.1,0.9,0.3,1.2c0.2,0.3,0.5,0.4,1,0.4c0.2,0,0.4,0,0.6-0.1c0.2-0.1,0.4-0.2,0.6-0.3v2.1c-0.4,0.2-1,0.3-1.6,0.3
		C174.3,36.1,173.9,36,173.5,35.9z"/>
	<path class="st8" d="M178.5,21.6h2.2v3.9l-0.1,1.6h0.1c0.3-0.5,0.7-0.9,1.3-1.2s1.2-0.5,1.9-0.5c1.2,0,2.2,0.4,2.8,1.1
		c0.7,0.7,1,1.7,1,3V36h-2.2v-6.2c0-0.8-0.2-1.4-0.6-1.7c-0.4-0.4-0.9-0.6-1.6-0.6c-0.5,0-0.9,0.1-1.3,0.4c-0.4,0.3-0.7,0.6-0.9,1.1
		s-0.3,1-0.3,1.5V36h-2.2V21.6z"/>
	<path class="st8" d="M192.2,35.6c-0.8-0.5-1.4-1.1-1.9-1.9c-0.4-0.8-0.7-1.7-0.7-2.8c0-1,0.2-1.9,0.7-2.7c0.4-0.8,1-1.5,1.8-2
		s1.7-0.7,2.6-0.7c1,0,1.9,0.2,2.7,0.7c0.8,0.5,1.3,1.1,1.7,1.9s0.6,1.7,0.6,2.7c0,0.2,0,0.4-0.1,0.7h-7.8c0.1,0.9,0.4,1.7,1,2.2
		c0.6,0.5,1.3,0.8,2.1,0.8c0.6,0,1.2-0.1,1.6-0.4c0.5-0.3,0.8-0.7,1.1-1.2l1.9,0.9c-0.5,0.8-1.1,1.5-1.9,2c-0.8,0.5-1.7,0.7-2.8,0.7
		C193.9,36.3,193,36,192.2,35.6z M197.5,29.7c0-0.4-0.1-0.7-0.3-1.1c-0.2-0.4-0.5-0.6-0.9-0.9c-0.4-0.2-0.9-0.4-1.5-0.4
		c-0.7,0-1.3,0.2-1.8,0.6c-0.5,0.4-0.8,1-1,1.7H197.5z"/>
	<path class="st8" d="M210.2,21.6h2.6l5.4,14.3h-2.5l-1.3-3.7h-5.8l-1.3,3.7h-2.5L210.2,21.6z M213.7,30.2l-1.5-4.3l-0.6-1.7h-0.1
		l-0.6,1.7l-1.5,4.3H213.7z"/>
	<path class="st8" d="M219.8,25.8h2.1v1.3h0.1c0.3-0.5,0.7-0.9,1.3-1.2s1.2-0.5,1.8-0.5c1.2,0,2.2,0.4,2.8,1.1c0.6,0.7,1,1.7,1,3V36
		h-2.2v-6.2c0-0.8-0.2-1.4-0.6-1.8c-0.4-0.4-0.9-0.6-1.6-0.6c-0.5,0-0.9,0.1-1.3,0.4s-0.7,0.6-0.9,1.1c-0.2,0.5-0.3,0.9-0.3,1.5V36
		h-2.2V25.8z"/>
	<path class="st8" d="M233.3,35.6c-0.7-0.5-1.3-1.1-1.8-1.9c-0.4-0.8-0.7-1.8-0.7-2.8c0-1,0.2-2,0.7-2.8c0.4-0.8,1-1.5,1.8-1.9
		c0.7-0.5,1.6-0.7,2.5-0.7c0.7,0,1.4,0.2,1.9,0.5s1,0.7,1.3,1.2h0.1l-0.1-1.4v-4h2.2V36h-2.1v-1.3H239c-0.3,0.5-0.7,0.8-1.3,1.2
		s-1.2,0.5-1.9,0.5C234.8,36.3,234,36,233.3,35.6z M237.6,33.8c0.5-0.3,0.8-0.7,1.1-1.2c0.3-0.5,0.4-1.1,0.4-1.8
		c0-0.7-0.1-1.3-0.4-1.8c-0.3-0.5-0.6-0.9-1.1-1.2c-0.5-0.3-1-0.4-1.5-0.4s-1,0.1-1.5,0.4c-0.5,0.3-0.8,0.7-1.1,1.2
		c-0.3,0.5-0.4,1.1-0.4,1.8c0,0.7,0.1,1.3,0.4,1.8c0.3,0.5,0.7,0.9,1.1,1.2c0.5,0.3,1,0.4,1.5,0.4S237.1,34.1,237.6,33.8z"/>
	<path class="st8" d="M243.8,25.8h2.1v1.5h0.1c0.2-0.5,0.6-0.9,1.2-1.3c0.6-0.3,1.2-0.5,1.8-0.5c0.5,0,0.9,0.1,1.2,0.2v2.3
		c-0.6-0.2-1.1-0.3-1.6-0.3c-0.5,0-1,0.1-1.3,0.4s-0.7,0.6-0.9,1.1c-0.2,0.4-0.3,0.9-0.3,1.5V36h-2.2V25.8z"/>
	<path class="st8" d="M253.3,35.6c-0.8-0.5-1.4-1.1-1.9-2c-0.5-0.8-0.7-1.7-0.7-2.8c0-1,0.2-1.9,0.7-2.8c0.5-0.8,1.1-1.5,1.9-2
		c0.8-0.5,1.7-0.7,2.8-0.7c1,0,1.9,0.2,2.8,0.7c0.8,0.5,1.4,1.1,1.9,2s0.7,1.7,0.7,2.7c0,1-0.2,1.9-0.7,2.8c-0.5,0.8-1.1,1.5-1.9,2
		c-0.8,0.5-1.7,0.7-2.8,0.7C255,36.3,254.1,36,253.3,35.6z M257.6,33.8c0.5-0.3,0.9-0.7,1.1-1.2c0.3-0.5,0.4-1.1,0.4-1.8
		c0-0.7-0.1-1.3-0.4-1.8c-0.3-0.5-0.7-0.9-1.1-1.2c-0.5-0.3-1-0.4-1.6-0.4c-0.6,0-1.1,0.1-1.6,0.4s-0.9,0.7-1.2,1.2
		c-0.3,0.5-0.4,1.1-0.4,1.8c0,0.7,0.1,1.3,0.4,1.8c0.3,0.5,0.7,0.9,1.2,1.2s1,0.4,1.6,0.4C256.6,34.3,257.1,34.1,257.6,33.8z"/>
	<path class="st8" d="M263.4,23.8c-0.3-0.3-0.4-0.6-0.4-1.1c0-0.4,0.1-0.8,0.4-1c0.3-0.3,0.6-0.4,1-0.4s0.8,0.1,1,0.4s0.4,0.6,0.4,1
		c0,0.4-0.1,0.8-0.4,1.1s-0.6,0.4-1,0.4S263.7,24.1,263.4,23.8z M263.3,25.8h2.2V36h-2.2V25.8z"/>
	<path class="st8" d="M270,35.6c-0.7-0.5-1.3-1.1-1.8-1.9c-0.4-0.8-0.7-1.8-0.7-2.8c0-1,0.2-2,0.7-2.8c0.4-0.8,1-1.5,1.8-1.9
		c0.7-0.5,1.6-0.7,2.5-0.7c0.7,0,1.4,0.2,1.9,0.5s1,0.7,1.3,1.2h0.1l-0.1-1.4v-4h2.2V36h-2.1v-1.3h-0.1c-0.3,0.5-0.7,0.8-1.3,1.2
		s-1.2,0.5-1.9,0.5C271.6,36.3,270.8,36,270,35.6z M274.4,33.8c0.5-0.3,0.8-0.7,1.1-1.2c0.3-0.5,0.4-1.1,0.4-1.8
		c0-0.7-0.1-1.3-0.4-1.8c-0.3-0.5-0.6-0.9-1.1-1.2c-0.5-0.3-1-0.4-1.5-0.4s-1,0.1-1.5,0.4c-0.5,0.3-0.8,0.7-1.1,1.2
		c-0.3,0.5-0.4,1.1-0.4,1.8c0,0.7,0.1,1.3,0.4,1.8c0.3,0.5,0.7,0.9,1.1,1.2c0.5,0.3,1,0.4,1.5,0.4S273.9,34.1,274.4,33.8z"/>
	<path class="st8" d="M288.2,35.3c-1.1-0.7-2.1-1.5-2.7-2.7c-0.7-1.1-1-2.4-1-3.8c0-1.4,0.3-2.7,1-3.8c0.7-1.1,1.6-2,2.7-2.7
		c1.1-0.7,2.4-1,3.8-1c1.1,0,2.1,0.2,3,0.6c0.9,0.4,1.7,0.9,2.3,1.6l-1.6,1.6c-0.5-0.5-1-0.9-1.7-1.2c-0.6-0.3-1.4-0.4-2.1-0.4
		c-0.9,0-1.8,0.2-2.6,0.7c-0.8,0.4-1.4,1.1-1.9,1.9c-0.5,0.8-0.7,1.7-0.7,2.8c0,1.1,0.2,2,0.7,2.8c0.5,0.8,1.1,1.4,1.9,1.9
		c0.8,0.4,1.7,0.7,2.6,0.7c0.9,0,1.6-0.1,2.1-0.4c0.6-0.3,1.1-0.6,1.5-1c0.3-0.3,0.5-0.7,0.8-1.1c0.2-0.4,0.3-0.9,0.4-1.4h-4.9v-2h7
		c0.1,0.4,0.1,0.8,0.1,1.2c0,0.9-0.1,1.8-0.4,2.6c-0.3,0.8-0.7,1.6-1.3,2.2c-1.3,1.4-3.1,2.1-5.3,2.1
		C290.6,36.3,289.3,35.9,288.2,35.3z"/>
	<path class="st8" d="M300.8,25.8h2.1v1.5h0.1c0.2-0.5,0.6-0.9,1.2-1.3c0.6-0.3,1.2-0.5,1.8-0.5c0.5,0,0.9,0.1,1.2,0.2v2.3
		c-0.6-0.2-1.1-0.3-1.6-0.3c-0.5,0-1,0.1-1.3,0.4s-0.7,0.6-0.9,1.1c-0.2,0.4-0.3,0.9-0.3,1.5V36h-2.2V25.8z"/>
	<path class="st8" d="M310.3,35.6c-0.8-0.5-1.4-1.1-1.9-1.9c-0.4-0.8-0.7-1.7-0.7-2.8c0-1,0.2-1.9,0.7-2.7c0.4-0.8,1-1.5,1.8-2
		s1.7-0.7,2.6-0.7c1,0,1.9,0.2,2.7,0.7c0.8,0.5,1.3,1.1,1.7,1.9s0.6,1.7,0.6,2.7c0,0.2,0,0.4-0.1,0.7H310c0.1,0.9,0.4,1.7,1,2.2
		c0.6,0.5,1.3,0.8,2.1,0.8c0.6,0,1.2-0.1,1.6-0.4c0.5-0.3,0.8-0.7,1.1-1.2l1.9,0.9c-0.5,0.8-1.1,1.5-1.9,2c-0.8,0.5-1.7,0.7-2.8,0.7
		C312,36.3,311.1,36,310.3,35.6z M315.6,29.7c0-0.4-0.1-0.7-0.3-1.1c-0.2-0.4-0.5-0.6-0.9-0.9c-0.4-0.2-0.9-0.4-1.5-0.4
		c-0.7,0-1.3,0.2-1.8,0.6c-0.5,0.4-0.8,1-1,1.7H315.6z"/>
	<path class="st8" d="M321.9,35.6c-0.8-0.5-1.4-1.1-1.9-1.9c-0.4-0.8-0.7-1.7-0.7-2.8c0-1,0.2-1.9,0.7-2.7c0.4-0.8,1-1.5,1.8-2
		s1.7-0.7,2.6-0.7c1,0,1.9,0.2,2.7,0.7c0.8,0.5,1.3,1.1,1.7,1.9s0.6,1.7,0.6,2.7c0,0.2,0,0.4-0.1,0.7h-7.8c0.1,0.9,0.4,1.7,1,2.2
		c0.6,0.5,1.3,0.8,2.1,0.8c0.6,0,1.2-0.1,1.6-0.4c0.5-0.3,0.8-0.7,1.1-1.2l1.9,0.9c-0.5,0.8-1.1,1.5-1.9,2c-0.8,0.5-1.7,0.7-2.8,0.7
		C323.6,36.3,322.7,36,321.9,35.6z M327.2,29.7c0-0.4-0.1-0.7-0.3-1.1c-0.2-0.4-0.5-0.6-0.9-0.9c-0.4-0.2-0.9-0.4-1.5-0.4
		c-0.7,0-1.3,0.2-1.8,0.6c-0.5,0.4-0.8,1-1,1.7H327.2z"/>
	<path class="st8" d="M331.5,25.8h2.1v1.3h0.1c0.3-0.5,0.7-0.9,1.3-1.2s1.2-0.5,1.8-0.5c1.2,0,2.2,0.4,2.8,1.1c0.6,0.7,1,1.7,1,3V36
		h-2.2v-6.2c0-0.8-0.2-1.4-0.6-1.8c-0.4-0.4-0.9-0.6-1.6-0.6c-0.5,0-0.9,0.1-1.3,0.4s-0.7,0.6-0.9,1.1c-0.2,0.5-0.3,0.9-0.3,1.5V36
		h-2.2V25.8z"/>
	<path class="st8" d="M351.6,21.6h2.6l5.4,14.3H357l-1.3-3.7H350l-1.3,3.7h-2.5L351.6,21.6z M355,30.2l-1.5-4.3l-0.6-1.7h-0.1
		l-0.6,1.7l-1.5,4.3H355z"/>
	<path class="st8" d="M361.1,25.8h2.1v1.3h0.1c0.3-0.5,0.7-0.9,1.3-1.2s1.2-0.5,1.9-0.5c0.9,0,1.8,0.2,2.5,0.7
		c0.7,0.5,1.3,1.1,1.8,1.9c0.4,0.8,0.6,1.8,0.6,2.8c0,1-0.2,2-0.6,2.8c-0.4,0.8-1,1.5-1.8,1.9c-0.7,0.5-1.6,0.7-2.5,0.7
		c-0.7,0-1.4-0.2-1.9-0.5s-1-0.7-1.3-1.2h-0.1l0.1,1.4v4.2h-2.2V25.8z M367.7,33.8c0.5-0.3,0.8-0.7,1.1-1.2c0.3-0.5,0.4-1.1,0.4-1.8
		c0-0.7-0.1-1.3-0.4-1.8c-0.3-0.5-0.7-0.9-1.1-1.2c-0.5-0.3-1-0.4-1.5-0.4c-0.5,0-1,0.1-1.5,0.4c-0.5,0.3-0.8,0.7-1.1,1.2
		c-0.3,0.5-0.4,1.1-0.4,1.8c0,0.7,0.1,1.3,0.4,1.8c0.3,0.5,0.7,0.9,1.1,1.2c0.5,0.3,1,0.4,1.5,0.4C366.8,34.3,367.3,34.1,367.7,33.8
		z"/>
	<path class="st8" d="M373.2,25.8h2.1v1.3h0.1c0.3-0.5,0.7-0.9,1.3-1.2s1.2-0.5,1.9-0.5c0.9,0,1.8,0.2,2.5,0.7
		c0.7,0.5,1.3,1.1,1.8,1.9c0.4,0.8,0.6,1.8,0.6,2.8c0,1-0.2,2-0.6,2.8c-0.4,0.8-1,1.5-1.8,1.9c-0.7,0.5-1.6,0.7-2.5,0.7
		c-0.7,0-1.4-0.2-1.9-0.5s-1-0.7-1.3-1.2h-0.1l0.1,1.4v4.2h-2.2V25.8z M379.8,33.8c0.5-0.3,0.8-0.7,1.1-1.2c0.3-0.5,0.4-1.1,0.4-1.8
		c0-0.7-0.1-1.3-0.4-1.8c-0.3-0.5-0.7-0.9-1.1-1.2c-0.5-0.3-1-0.4-1.5-0.4c-0.5,0-1,0.1-1.5,0.4c-0.5,0.3-0.8,0.7-1.1,1.2
		c-0.3,0.5-0.4,1.1-0.4,1.8c0,0.7,0.1,1.3,0.4,1.8c0.3,0.5,0.7,0.9,1.1,1.2c0.5,0.3,1,0.4,1.5,0.4C378.9,34.3,379.4,34.1,379.8,33.8
		z"/>
	<path class="st8" d="M385.4,21.6h2.2V36h-2.2V21.6z"/>
	<path class="st8" d="M390.4,23.8c-0.3-0.3-0.4-0.6-0.4-1.1c0-0.4,0.1-0.8,0.4-1c0.3-0.3,0.6-0.4,1-0.4s0.8,0.1,1,0.4s0.4,0.6,0.4,1
		c0,0.4-0.1,0.8-0.4,1.1s-0.6,0.4-1,0.4S390.6,24.1,390.4,23.8z M390.3,25.8h2.2V36h-2.2V25.8z"/>
	<path class="st8" d="M397.1,35.6c-0.8-0.5-1.4-1.1-1.9-1.9c-0.4-0.8-0.7-1.8-0.7-2.8c0-1,0.2-2,0.7-2.8c0.4-0.8,1.1-1.5,1.9-1.9
		s1.7-0.7,2.7-0.7c1.1,0,2.1,0.3,2.9,0.8c0.8,0.5,1.3,1.2,1.7,2.1l-2,0.8c-0.5-1.1-1.3-1.6-2.6-1.6c-0.5,0-1.1,0.1-1.5,0.4
		c-0.5,0.3-0.8,0.7-1.1,1.2c-0.3,0.5-0.4,1.1-0.4,1.8c0,0.7,0.1,1.3,0.4,1.8c0.3,0.5,0.6,0.9,1.1,1.2c0.5,0.3,1,0.4,1.5,0.4
		c0.6,0,1.2-0.1,1.6-0.4s0.8-0.7,1-1.2l2,0.9c-0.4,0.9-1,1.6-1.8,2.1c-0.8,0.5-1.7,0.8-2.9,0.8C398.8,36.3,397.9,36,397.1,35.6z"/>
	<path class="st8" d="M407.5,35.8c-0.6-0.3-1-0.7-1.3-1.2c-0.3-0.5-0.5-1.1-0.5-1.8c0-1.1,0.4-1.9,1.2-2.5c0.8-0.6,1.8-0.9,3-0.9
		c0.6,0,1.1,0.1,1.6,0.2c0.5,0.1,0.9,0.2,1.1,0.4v-0.5c0-0.6-0.2-1.1-0.7-1.5c-0.5-0.4-1.1-0.6-1.8-0.6c-0.5,0-1,0.1-1.5,0.3
		s-0.8,0.5-1.1,0.9l-1.5-1.2c0.5-0.6,1-1.1,1.8-1.5s1.5-0.5,2.4-0.5c1.5,0,2.6,0.4,3.4,1.1c0.8,0.7,1.2,1.8,1.2,3.1V36h-2.2v-1.2
		h-0.1c-0.3,0.4-0.7,0.8-1.2,1.1c-0.5,0.3-1.1,0.4-1.8,0.4C408.7,36.3,408.1,36.1,407.5,35.8z M411.3,34.1c0.4-0.3,0.8-0.6,1-1
		c0.2-0.4,0.4-0.9,0.4-1.4c-0.3-0.2-0.7-0.3-1.1-0.4c-0.4-0.1-0.8-0.2-1.3-0.2c-0.8,0-1.4,0.2-1.8,0.5c-0.4,0.3-0.6,0.8-0.6,1.3
		c0,0.5,0.2,0.8,0.5,1.1s0.8,0.5,1.4,0.5C410.4,34.5,410.9,34.3,411.3,34.1z"/>
	<path class="st8" d="M419.9,35.9c-0.4-0.1-0.7-0.3-1-0.6c-0.6-0.6-0.9-1.4-0.9-2.3v-5.3h-1.8v-1.9h1.8v-2.9h2.2v2.9h2.5v1.9h-2.5
		v4.8c0,0.5,0.1,0.9,0.3,1.2c0.2,0.3,0.5,0.4,1,0.4c0.2,0,0.4,0,0.6-0.1c0.2-0.1,0.4-0.2,0.6-0.3v2.1c-0.4,0.2-1,0.3-1.6,0.3
		C420.7,36.1,420.3,36,419.9,35.9z"/>
	<path class="st8" d="M425.2,23.8c-0.3-0.3-0.4-0.6-0.4-1.1c0-0.4,0.1-0.8,0.4-1c0.3-0.3,0.6-0.4,1-0.4s0.8,0.1,1,0.4s0.4,0.6,0.4,1
		c0,0.4-0.1,0.8-0.4,1.1s-0.6,0.4-1,0.4S425.4,24.1,425.2,23.8z M425.1,25.8h2.2V36h-2.2V25.8z"/>
	<path class="st8" d="M432,35.6c-0.8-0.5-1.4-1.1-1.9-2c-0.5-0.8-0.7-1.7-0.7-2.8c0-1,0.2-1.9,0.7-2.8c0.5-0.8,1.1-1.5,1.9-2
		c0.8-0.5,1.7-0.7,2.8-0.7c1,0,1.9,0.2,2.8,0.7c0.8,0.5,1.4,1.1,1.9,2s0.7,1.7,0.7,2.7c0,1-0.2,1.9-0.7,2.8c-0.5,0.8-1.1,1.5-1.9,2
		c-0.8,0.5-1.7,0.7-2.8,0.7C433.7,36.3,432.8,36,432,35.6z M436.3,33.8c0.5-0.3,0.9-0.7,1.1-1.2c0.3-0.5,0.4-1.1,0.4-1.8
		c0-0.7-0.1-1.3-0.4-1.8c-0.3-0.5-0.7-0.9-1.1-1.2c-0.5-0.3-1-0.4-1.6-0.4c-0.6,0-1.1,0.1-1.6,0.4s-0.9,0.7-1.2,1.2
		c-0.3,0.5-0.4,1.1-0.4,1.8c0,0.7,0.1,1.3,0.4,1.8c0.3,0.5,0.7,0.9,1.2,1.2s1,0.4,1.6,0.4C435.3,34.3,435.8,34.1,436.3,33.8z"/>
	<path class="st8" d="M441.9,25.8h2.1v1.3h0.1c0.3-0.5,0.7-0.9,1.3-1.2s1.2-0.5,1.8-0.5c1.2,0,2.2,0.4,2.8,1.1c0.6,0.7,1,1.7,1,3V36
		h-2.2v-6.2c0-0.8-0.2-1.4-0.6-1.8c-0.4-0.4-0.9-0.6-1.6-0.6c-0.5,0-0.9,0.1-1.3,0.4s-0.7,0.6-0.9,1.1c-0.2,0.5-0.3,0.9-0.3,1.5V36
		h-2.2V25.8z"/>
	<path class="st8" d="M461.1,35.3c-1.1-0.7-2-1.6-2.7-2.7c-0.7-1.1-1-2.4-1-3.8c0-1.4,0.3-2.7,1-3.8c0.7-1.1,1.6-2,2.7-2.7
		c1.1-0.7,2.4-1,3.8-1c1.1,0,2.1,0.2,2.9,0.6s1.7,1,2.4,1.7l-1.6,1.5c-0.5-0.6-1-1-1.6-1.3s-1.3-0.4-2.1-0.4c-1,0-1.8,0.2-2.6,0.7
		c-0.8,0.4-1.4,1.1-1.9,1.9c-0.5,0.8-0.7,1.7-0.7,2.8c0,1.1,0.2,2,0.7,2.8c0.5,0.8,1.1,1.4,1.9,1.9c0.8,0.4,1.7,0.7,2.6,0.7
		c1.6,0,3-0.7,4.1-2l1.6,1.6c-0.7,0.8-1.5,1.4-2.5,1.9c-1,0.5-2,0.7-3.2,0.7C463.5,36.3,462.3,35.9,461.1,35.3z"/>
	<path class="st8" d="M474.4,35.6c-0.8-0.5-1.4-1.1-1.9-2c-0.5-0.8-0.7-1.7-0.7-2.8c0-1,0.2-1.9,0.7-2.8c0.5-0.8,1.1-1.5,1.9-2
		c0.8-0.5,1.7-0.7,2.8-0.7c1,0,1.9,0.2,2.8,0.7c0.8,0.5,1.4,1.1,1.9,2s0.7,1.7,0.7,2.7c0,1-0.2,1.9-0.7,2.8c-0.5,0.8-1.1,1.5-1.9,2
		c-0.8,0.5-1.7,0.7-2.8,0.7C476.1,36.3,475.2,36,474.4,35.6z M478.7,33.8c0.5-0.3,0.9-0.7,1.1-1.2c0.3-0.5,0.4-1.1,0.4-1.8
		c0-0.7-0.1-1.3-0.4-1.8c-0.3-0.5-0.7-0.9-1.1-1.2c-0.5-0.3-1-0.4-1.6-0.4c-0.6,0-1.1,0.1-1.6,0.4s-0.9,0.7-1.2,1.2
		c-0.3,0.5-0.4,1.1-0.4,1.8c0,0.7,0.1,1.3,0.4,1.8c0.3,0.5,0.7,0.9,1.2,1.2s1,0.4,1.6,0.4C477.7,34.3,478.2,34.1,478.7,33.8z"/>
	<path class="st8" d="M484.3,25.8h2.1v1.3h0.1c0.3-0.5,0.7-0.9,1.3-1.2s1.2-0.5,1.8-0.5c1.2,0,2.2,0.4,2.8,1.1c0.6,0.7,1,1.7,1,3V36
		h-2.2v-6.2c0-0.8-0.2-1.4-0.6-1.8c-0.4-0.4-0.9-0.6-1.6-0.6c-0.5,0-0.9,0.1-1.3,0.4s-0.7,0.6-0.9,1.1c-0.2,0.5-0.3,0.9-0.3,1.5V36
		h-2.2V25.8z"/>
	<path class="st8" d="M494.4,25.8h2.5l2.8,7.4h0.1l2.9-7.4h2.4L500.8,36h-2.2L494.4,25.8z"/>
	<path class="st8" d="M508.1,35.6c-0.8-0.5-1.4-1.1-1.9-1.9c-0.4-0.8-0.7-1.7-0.7-2.8c0-1,0.2-1.9,0.7-2.7c0.4-0.8,1-1.5,1.8-2
		s1.7-0.7,2.6-0.7c1,0,1.9,0.2,2.7,0.7c0.8,0.5,1.3,1.1,1.7,1.9s0.6,1.7,0.6,2.7c0,0.2,0,0.4-0.1,0.7h-7.8c0.1,0.9,0.4,1.7,1,2.2
		c0.6,0.5,1.3,0.8,2.1,0.8c0.6,0,1.2-0.1,1.6-0.4c0.5-0.3,0.8-0.7,1.1-1.2l1.9,0.9c-0.5,0.8-1.1,1.5-1.9,2c-0.8,0.5-1.7,0.7-2.8,0.7
		C509.8,36.3,508.9,36,508.1,35.6z M513.4,29.7c0-0.4-0.1-0.7-0.3-1.1c-0.2-0.4-0.5-0.6-0.9-0.9c-0.4-0.2-0.9-0.4-1.5-0.4
		c-0.7,0-1.3,0.2-1.8,0.6c-0.5,0.4-0.8,1-1,1.7H513.4z"/>
	<path class="st8" d="M517.7,25.8h2.1v1.3h0.1c0.3-0.5,0.7-0.9,1.3-1.2s1.2-0.5,1.8-0.5c1.2,0,2.2,0.4,2.8,1.1c0.6,0.7,1,1.7,1,3V36
		h-2.2v-6.2c0-0.8-0.2-1.4-0.6-1.8c-0.4-0.4-0.9-0.6-1.6-0.6c-0.5,0-0.9,0.1-1.3,0.4s-0.7,0.6-0.9,1.1c-0.2,0.5-0.3,0.9-0.3,1.5V36
		h-2.2V25.8z"/>
	<path class="st8" d="M531.7,35.9c-0.4-0.1-0.7-0.3-1-0.6c-0.6-0.6-0.9-1.4-0.9-2.3v-5.3h-1.8v-1.9h1.8v-2.9h2.2v2.9h2.5v1.9h-2.5
		v4.8c0,0.5,0.1,0.9,0.3,1.2c0.2,0.3,0.5,0.4,1,0.4c0.2,0,0.4,0,0.6-0.1c0.2-0.1,0.4-0.2,0.6-0.3v2.1c-0.4,0.2-1,0.3-1.6,0.3
		C532.5,36.1,532.1,36,531.7,35.9z"/>
	<path class="st8" d="M537,23.8c-0.3-0.3-0.4-0.6-0.4-1.1c0-0.4,0.1-0.8,0.4-1c0.3-0.3,0.6-0.4,1-0.4s0.8,0.1,1,0.4s0.4,0.6,0.4,1
		c0,0.4-0.1,0.8-0.4,1.1s-0.6,0.4-1,0.4S537.3,24.1,537,23.8z M536.9,25.8h2.2V36h-2.2V25.8z"/>
	<path class="st8" d="M543.8,35.6c-0.8-0.5-1.4-1.1-1.9-2c-0.5-0.8-0.7-1.7-0.7-2.8c0-1,0.2-1.9,0.7-2.8c0.5-0.8,1.1-1.5,1.9-2
		c0.8-0.5,1.7-0.7,2.8-0.7c1,0,1.9,0.2,2.8,0.7c0.8,0.5,1.4,1.1,1.9,2s0.7,1.7,0.7,2.7c0,1-0.2,1.9-0.7,2.8c-0.5,0.8-1.1,1.5-1.9,2
		c-0.8,0.5-1.7,0.7-2.8,0.7C545.5,36.3,544.6,36,543.8,35.6z M548.1,33.8c0.5-0.3,0.9-0.7,1.1-1.2c0.3-0.5,0.4-1.1,0.4-1.8
		c0-0.7-0.1-1.3-0.4-1.8c-0.3-0.5-0.7-0.9-1.1-1.2c-0.5-0.3-1-0.4-1.6-0.4c-0.6,0-1.1,0.1-1.6,0.4s-0.9,0.7-1.2,1.2
		c-0.3,0.5-0.4,1.1-0.4,1.8c0,0.7,0.1,1.3,0.4,1.8c0.3,0.5,0.7,0.9,1.2,1.2s1,0.4,1.6,0.4C547.1,34.3,547.6,34.1,548.1,33.8z"/>
	<path class="st8" d="M553.7,25.8h2.1v1.3h0.1c0.3-0.5,0.7-0.9,1.3-1.2s1.2-0.5,1.8-0.5c1.2,0,2.2,0.4,2.8,1.1c0.6,0.7,1,1.7,1,3V36
		h-2.2v-6.2c0-0.8-0.2-1.4-0.6-1.8c-0.4-0.4-0.9-0.6-1.6-0.6c-0.5,0-0.9,0.1-1.3,0.4s-0.7,0.6-0.9,1.1c-0.2,0.5-0.3,0.9-0.3,1.5V36
		h-2.2V25.8z"/>
</g>
<g>
</g>
<g>
</g>
<g>
</g>
<g>
</g>
<g>
</g>
</svg>
