<?xml version="1.0" encoding="utf-8"?>
<!-- Generator: Adobe Illustrator 24.0.1, SVG Export Plug-In . SVG Version: 6.00 Build 0)  -->
<svg version="1.1" id="图层_1" xmlns="http://www.w3.org/2000/svg" xmlns:xlink="http://www.w3.org/1999/xlink" x="0px" y="0px"
	 viewBox="0 0 600 60" style="enable-background:new 0 0 600 60;" xml:space="preserve">
<style type="text/css">
	.st0{fill:#FAD689;}
	.st1{fill:#F9F9F9;}
	.st2{fill:#FEFEFE;}
	.st3{fill:#EDEDED;}
	.st4{fill:#FE8B00;}
	.st5{fill:#FE8C00;}
	.st6{fill:#FE8C01;}
	.st7{fill:#00F29A;}
	.st8{fill:#F7CF9E;}
	.st9{fill:#FED64F;}
	.st10{fill:#00EB89;}
	.st11{fill:#FFFFFF;}
</style>
<path class="st0" d="M570,60H30C13.5,60,0,46.5,0,30v0C0,13.5,13.5,0,30,0l540,0c16.5,0,30,13.5,30,30v0C600,46.5,586.5,60,570,60z"
	/>
<g>
	<path class="st1" d="M39.6,42.7c-0.4-2.1,0.2-3.9,1.8-5.3c0.5-0.7,1.2-0.9,2-1c0.2,0,0.4-0.1,0.7-0.1c0.6-0.1,1.1-0.1,1.7-0.1
		c4.7,0,9.5,0,14.2,0c0.3,0,0.6,0,0.8-0.1c4.4,0.2,8.7,0,13.1,0.1c0.4,0,0.8,0,1.2,0.1c1.1,0.2,2.1,0.6,2.9,1.4
		c0.2,0.2,0.5,0.4,0.4,0.8c0.9,1.3,1.1,2.7,0.8,4.2c0,0.7-0.2,1.2-0.6,1.7c-1,1.5-2.5,2.2-4.2,2.2c-10,0-20.1,0-30.1,0
		c-1.8,0-3.2-0.8-4.2-2.2C39.8,44,39.6,43.4,39.6,42.7z"/>
	<path class="st1" d="M39.6,22.8c-0.8-3.9,2.3-6.4,5.2-6.3c6.4,0.1,12.8,0.1,19.3,0c2.9-0.1,6.1,2.4,5.2,6.3
		c-0.1,1.6-1.5,3.2-3.3,3.7c-0.2,0.1-0.5,0.1-0.8,0.2c-1.5,0.2-3,0-4.5,0.2c-0.5-0.1-0.9-0.1-1.4-0.1c-4.9,0-9.8,0-14.7,0
		c-0.2,0-0.4,0-0.6,0c-0.2,0-0.4-0.1-0.7-0.1C41.4,26.2,39.7,24.6,39.6,22.8z"/>
	<path class="st2" d="M60.9,26.7c1.2-0.3,2.3-0.1,3.5-0.2c0.4,0,0.7,0,1.1-0.1c0.7,0.2,1.4-0.2,2.1-0.1c0.3,0,0.7,0,1,0.2
		c3.5,0,7.1,0.1,10.6,0c3-0.1,6,2.4,5.2,6.3c0.1,0.9-0.4,1.6-1,2.2c-1,1.1-2.3,1.8-3.8,1.7c-1.4,0-2.7,0.1-4.1-0.2
		c-4.5,0-9.1,0-13.6,0c-0.3,0-0.6-0.1-0.9-0.1c-0.4,0.2-0.8,0-1.2-0.2c-1.9-1-2.9-2.5-2.9-4.7c0-2.2,1-3.7,2.9-4.7
		C60.1,26.6,60.5,26.5,60.9,26.7z"/>
	<path class="st3" d="M60.9,26.7c-1.9,0.2-4,2.4-3.9,5c0.1,2.3,1.7,4.4,3.9,4.7c-0.3,0.3-0.6,0.1-0.9,0.1c-5.4,0-10.8,0-16.1,0
		c-0.2,0-0.4,0-0.6,0c-1.9-0.3-3.6-2-3.7-3.7c-0.4-2.1,0.2-3.9,1.8-5.3c0.4-0.7,1.1-0.9,1.9-1c0.2,0,0.4,0,0.6,0
		c5.4,0,10.8,0,16.1,0C60.3,26.5,60.6,26.4,60.9,26.7z"/>
	<path class="st4" d="M39.6,42.7c0.9,2.6,2.5,3.7,5.3,3.7c9.7,0,19.5,0,29.2,0c2.7,0,4.4-1.2,5.3-3.7c0.7,2.6-1.7,5.8-4.3,5.8
		c-10.4,0-20.7,0-31.1,0C41.3,48.5,38.9,45.4,39.6,42.7z"/>
	<path class="st2" d="M74.6,17.8c-0.4-2.3,0.4-4.3,2.2-5.5c1.7-1.1,4-1.1,5.6,0.2c1.8,1.3,2.3,3.2,1.9,5.3c0,1.1-0.5,1.8-1.2,2.5
		c-2.4,2.4-6.5,1.8-8.2-1.1C74.7,18.7,74.6,18.3,74.6,17.8z"/>
	<path class="st5" d="M74.6,17.8c1.1,4.1,6.1,5,8.6,2.1c0.5-0.6,0.9-1.3,1.1-2.1c0.7,2.6-1.7,5.6-4.3,5.8c-3.1,0.2-5.1-2-5.5-4.1
		C74.5,18.9,74.4,18.3,74.6,17.8z"/>
	<path class="st5" d="M75.5,36.5c1.2,0,2.4-0.1,3.6,0c2.7,0.2,4.8-1.6,5.3-3.8c0.7,2.6-1.7,5.7-4.3,5.8c-0.5,0-1,0-1.5,0
		C77.8,37.5,76.7,36.9,75.5,36.5z"/>
	<path class="st6" d="M39.6,32.7c0.6,1.9,1.8,3.2,3.8,3.6c0.1,0.1,0.1,0.2,0,0.3c-0.7,0.1-1.3,0.5-1.9,0.8
		C39.9,36.3,39.2,34.4,39.6,32.7z"/>
	<path class="st6" d="M43.4,26.6c-0.7,0.1-1.3,0.5-1.9,0.8c-1.5-1.1-2.2-3.1-1.8-4.7c0.6,1.9,1.8,3.2,3.8,3.6
		C43.5,26.5,43.5,26.5,43.4,26.6z"/>
	<path class="st6" d="M68.6,26.5c-1,0-2.1,0.2-3.1-0.1c2.1-0.3,3.3-1.7,3.9-3.6C69.7,24.1,69.3,25.3,68.6,26.5z"/>
	<path class="st7" d="M44.5,39.4c1.2,0,2.1,0.9,2.1,2.1c0,1.2-0.9,2-2.1,2c-1.2,0-2.1-0.9-2.1-2.1C42.4,40.3,43.4,39.4,44.5,39.4z"
		/>
	<path class="st8" d="M43.4,36.6c0-0.1,0-0.2,0-0.3c0.2,0,0.4-0.1,0.5,0.1C43.8,36.7,43.6,36.7,43.4,36.6z"/>
	<path class="st7" d="M46.6,21.5c0,1.2-0.9,2.1-2,2.1c-1.2,0-2.1-0.9-2.1-2.1c0-1.2,0.9-2.1,2.1-2.1C45.7,19.4,46.6,20.3,46.6,21.5z
		"/>
	<path class="st8" d="M43.4,26.6c0-0.1,0-0.2,0-0.3c0.2,0,0.4,0,0.5,0.1C43.8,26.7,43.6,26.7,43.4,26.6z"/>
	<path class="st9" d="M79.5,33.6c-1.2,0-2.1-1-2.1-2.1c0-1.1,1-2.1,2.1-2.1c1.2,0,2.1,1,2.1,2.1C81.6,32.7,80.6,33.6,79.5,33.6z"/>
	<path class="st10" d="M46.6,31.5c0,1.2-0.9,2.1-2.1,2.1c-1.2,0-2.1-0.9-2.1-2.1c0-1.2,0.9-2.1,2.1-2.1
		C45.7,29.4,46.6,30.3,46.6,31.5z"/>
</g>
<g>
	<path class="st11" d="M192.7,22.1h2.6l3.4,9.9l0.5,1.7h0.1l0.5-1.7l3.5-9.9h2.6l-5.5,15H198L192.7,22.1z"/>
	<path class="st11" d="M208.4,36.7c-0.8-0.5-1.5-1.2-2-2c-0.5-0.9-0.7-1.8-0.7-2.9c0-1,0.2-2,0.7-2.8c0.5-0.9,1.1-1.6,1.9-2.1
		c0.8-0.5,1.7-0.8,2.8-0.8c1.1,0,2,0.2,2.8,0.7c0.8,0.5,1.4,1.1,1.8,2c0.4,0.8,0.6,1.8,0.6,2.8c0,0.2,0,0.4-0.1,0.7h-8.2
		c0.1,1,0.4,1.8,1.1,2.3c0.6,0.5,1.3,0.8,2.2,0.8c0.7,0,1.2-0.2,1.7-0.5c0.5-0.3,0.9-0.7,1.2-1.2l2,0.9c-0.5,0.9-1.2,1.6-2,2.1
		s-1.8,0.8-2.9,0.8C210.2,37.5,209.3,37.2,208.4,36.7z M214,30.5c0-0.4-0.1-0.8-0.4-1.1s-0.5-0.7-1-0.9s-0.9-0.4-1.6-0.4
		c-0.7,0-1.4,0.2-1.9,0.7c-0.5,0.4-0.9,1-1.1,1.8H214z"/>
	<path class="st11" d="M218.4,26.4h2.2V28h0.1c0.2-0.5,0.7-1,1.2-1.4c0.6-0.4,1.2-0.5,1.9-0.5c0.5,0,1,0.1,1.3,0.2v2.4
		c-0.6-0.2-1.2-0.3-1.7-0.3c-0.5,0-1,0.1-1.4,0.4c-0.4,0.3-0.7,0.7-1,1.1c-0.2,0.5-0.4,1-0.4,1.5v5.7h-2.3V26.4z"/>
	<path class="st11" d="M227.2,24.4c-0.3-0.3-0.5-0.7-0.5-1.1s0.2-0.8,0.5-1.1c0.3-0.3,0.7-0.5,1.1-0.5c0.4,0,0.8,0.2,1.1,0.5
		c0.3,0.3,0.5,0.7,0.5,1.1s-0.2,0.8-0.5,1.1c-0.3,0.3-0.7,0.5-1.1,0.5C227.8,24.9,227.5,24.7,227.2,24.4z M227.1,26.4h2.3v10.7h-2.3
		V26.4z"/>
	<path class="st11" d="M233.5,28.5h-2v-2h2v-0.8c0-1.1,0.3-2,1-2.7s1.6-1,2.7-1c0.5,0,1,0.1,1.4,0.2v2.2c0,0-0.2-0.1-0.4-0.1
		s-0.5-0.1-0.9-0.1c-0.4,0-0.8,0.1-1.1,0.4s-0.4,0.7-0.4,1.2v0.7h7v10.7h-2.3v-8.7h-4.6v8.7h-2.3V28.5z M240.5,24.5
		c-0.3-0.3-0.5-0.7-0.5-1.1s0.2-0.8,0.5-1.1c0.3-0.3,0.7-0.5,1.1-0.5c0.4,0,0.8,0.2,1.1,0.5c0.3,0.3,0.5,0.7,0.5,1.1
		s-0.2,0.8-0.5,1.1c-0.3,0.3-0.7,0.5-1.1,0.5C241.2,25,240.8,24.8,240.5,24.5z"/>
	<path class="st11" d="M247.6,36.7c-0.8-0.5-1.5-1.2-2-2c-0.5-0.9-0.7-1.8-0.7-2.9c0-1,0.2-2,0.7-2.8c0.5-0.9,1.1-1.6,1.9-2.1
		c0.8-0.5,1.7-0.8,2.8-0.8c1.1,0,2,0.2,2.8,0.7c0.8,0.5,1.4,1.1,1.8,2c0.4,0.8,0.6,1.8,0.6,2.8c0,0.2,0,0.4-0.1,0.7h-8.2
		c0.1,1,0.4,1.8,1.1,2.3c0.6,0.5,1.3,0.8,2.2,0.8c0.7,0,1.2-0.2,1.7-0.5c0.5-0.3,0.9-0.7,1.2-1.2l2,0.9c-0.5,0.9-1.2,1.6-2,2.1
		s-1.8,0.8-2.9,0.8C249.3,37.5,248.4,37.2,247.6,36.7z M253.1,30.5c0-0.4-0.1-0.8-0.4-1.1s-0.5-0.7-1-0.9s-0.9-0.4-1.6-0.4
		c-0.7,0-1.4,0.2-1.9,0.7c-0.5,0.4-0.9,1-1.1,1.8H253.1z"/>
	<path class="st11" d="M259.7,36.7c-0.8-0.5-1.4-1.2-1.9-2c-0.5-0.9-0.7-1.8-0.7-2.9c0-1.1,0.2-2.1,0.7-2.9c0.5-0.9,1.1-1.5,1.9-2
		c0.8-0.5,1.7-0.7,2.6-0.7c0.8,0,1.4,0.2,2,0.5c0.6,0.3,1.1,0.7,1.4,1.2h0.1l-0.1-1.5v-4.2h2.3v15h-2.2v-1.4h-0.1
		c-0.3,0.5-0.8,0.9-1.4,1.2c-0.6,0.3-1.3,0.5-2,0.5C261.3,37.5,260.4,37.2,259.7,36.7z M264.2,34.9c0.5-0.3,0.9-0.7,1.2-1.3
		c0.3-0.5,0.4-1.2,0.4-1.9c0-0.7-0.1-1.3-0.4-1.9c-0.3-0.5-0.7-1-1.2-1.2c-0.5-0.3-1-0.4-1.6-0.4s-1.1,0.1-1.6,0.4
		c-0.5,0.3-0.9,0.7-1.2,1.2s-0.4,1.2-0.4,1.9c0,0.7,0.1,1.3,0.4,1.9c0.3,0.5,0.7,1,1.2,1.3c0.5,0.3,1,0.4,1.6,0.4
		S263.7,35.2,264.2,34.9z"/>
	<path class="st11" d="M276,22.1h5.6c0.8,0,1.5,0.2,2.2,0.5c0.7,0.4,1.2,0.8,1.6,1.4c0.4,0.6,0.6,1.3,0.6,2s-0.2,1.4-0.6,1.9
		c-0.4,0.5-0.9,1-1.5,1.2v0.1c0.8,0.3,1.4,0.7,1.8,1.3c0.5,0.6,0.7,1.3,0.7,2.2s-0.2,1.6-0.6,2.2c-0.4,0.6-1,1.1-1.7,1.5
		c-0.7,0.4-1.5,0.5-2.4,0.5H276V22.1z M281.5,28.4c0.7,0,1.2-0.2,1.6-0.6c0.4-0.4,0.6-0.9,0.6-1.4s-0.2-1-0.6-1.4s-0.9-0.6-1.6-0.6
		h-3.3v4.1H281.5z M281.9,35c0.7,0,1.3-0.2,1.7-0.7c0.4-0.4,0.6-1,0.6-1.6c0-0.6-0.2-1.1-0.7-1.6c-0.4-0.4-1-0.7-1.8-0.7h-3.5V35
		H281.9z"/>
	<path class="st11" d="M291.8,36.6l-4.5-10.1h2.6l3,7.3h0.1l2.9-7.3h2.5l-6.6,15.2h-2.4L291.8,36.6z"/>
	<path class="st11" d="M305.7,36.4c-1-0.7-1.7-1.8-2.1-3.1l2.2-0.9c0.2,0.8,0.6,1.5,1.2,2c0.6,0.5,1.2,0.8,2,0.8
		c0.7,0,1.4-0.2,1.9-0.6c0.5-0.4,0.8-0.9,0.8-1.6c0-0.6-0.2-1.1-0.7-1.5c-0.5-0.4-1.3-0.8-2.4-1.2l-0.9-0.3c-1-0.3-1.9-0.9-2.5-1.5
		s-1-1.5-1-2.6c0-0.7,0.2-1.4,0.6-2.1s1-1.1,1.7-1.5s1.5-0.6,2.4-0.6c1.3,0,2.4,0.3,3.2,1c0.8,0.6,1.3,1.4,1.6,2.2l-2.1,0.9
		c-0.2-0.5-0.4-0.9-0.9-1.3c-0.4-0.4-1-0.5-1.7-0.5c-0.7,0-1.3,0.2-1.7,0.5c-0.5,0.4-0.7,0.8-0.7,1.3c0,0.5,0.2,0.9,0.6,1.3
		s1.1,0.7,2,1l0.9,0.3c1.3,0.4,2.3,1,3,1.8s1.1,1.7,1.1,2.9c0,1-0.3,1.8-0.8,2.5c-0.5,0.7-1.1,1.2-1.9,1.5c-0.8,0.3-1.6,0.5-2.4,0.5
		C307.8,37.5,306.7,37.1,305.7,36.4z"/>
	<path class="st11" d="M319,37.1c-0.4-0.2-0.8-0.4-1-0.6c-0.6-0.6-0.9-1.4-0.9-2.5v-5.5h-1.9v-2h1.9v-3h2.3v3h2.6v2h-2.6v5
		c0,0.6,0.1,1,0.3,1.2c0.2,0.3,0.6,0.4,1.1,0.4c0.2,0,0.4,0,0.6-0.1c0.2-0.1,0.4-0.2,0.6-0.3V37c-0.5,0.2-1,0.3-1.7,0.3
		C319.9,37.3,319.4,37.2,319,37.1z"/>
	<path class="st11" d="M325.9,36.7c-0.9-0.5-1.5-1.2-2-2c-0.5-0.9-0.7-1.8-0.7-2.9c0-1.1,0.2-2,0.7-2.9c0.5-0.9,1.1-1.6,2-2
		c0.9-0.5,1.8-0.7,2.9-0.7s2,0.3,2.9,0.8c0.9,0.5,1.5,1.2,2,2.1c0.5,0.9,0.7,1.8,0.7,2.9c0,1.1-0.2,2-0.7,2.9c-0.5,0.9-1.1,1.6-2,2
		c-0.9,0.5-1.8,0.7-2.9,0.7S326.7,37.2,325.9,36.7z M330.4,34.9c0.5-0.3,0.9-0.7,1.2-1.2c0.3-0.5,0.5-1.2,0.5-1.9
		c0-0.7-0.2-1.4-0.5-1.9c-0.3-0.5-0.7-0.9-1.2-1.2c-0.5-0.3-1-0.4-1.6-0.4c-0.6,0-1.1,0.1-1.6,0.4c-0.5,0.3-0.9,0.7-1.2,1.2
		c-0.3,0.5-0.5,1.2-0.5,1.9c0,0.7,0.2,1.4,0.5,1.9c0.3,0.5,0.7,1,1.2,1.2c0.5,0.3,1,0.4,1.6,0.4C329.4,35.4,329.9,35.2,330.4,34.9z"
		/>
	<path class="st11" d="M336.3,26.4h2.2V28h0.1c0.2-0.5,0.7-1,1.2-1.4c0.6-0.4,1.2-0.5,1.9-0.5c0.5,0,1,0.1,1.3,0.2v2.4
		c-0.6-0.2-1.2-0.3-1.7-0.3c-0.5,0-1,0.1-1.4,0.4c-0.4,0.3-0.7,0.7-1,1.1s-0.4,1-0.4,1.5v5.7h-2.3V26.4z"/>
	<path class="st11" d="M345.7,37c-0.6-0.3-1.1-0.7-1.4-1.3s-0.5-1.2-0.5-1.9c0-1.1,0.4-2,1.2-2.6c0.8-0.6,1.9-1,3.2-1
		c0.6,0,1.2,0.1,1.7,0.2c0.5,0.1,0.9,0.2,1.2,0.4v-0.5c0-0.7-0.2-1.2-0.7-1.6c-0.5-0.4-1.1-0.6-1.9-0.6c-0.5,0-1.1,0.1-1.5,0.4
		c-0.5,0.2-0.9,0.6-1.2,1l-1.6-1.2c0.5-0.7,1.1-1.2,1.8-1.5c0.8-0.4,1.6-0.5,2.5-0.5c1.6,0,2.8,0.4,3.6,1.1s1.3,1.8,1.3,3.2v6.7
		h-2.3v-1.3H351c-0.3,0.5-0.7,0.8-1.3,1.2c-0.6,0.3-1.2,0.5-1.9,0.5C347,37.5,346.3,37.3,345.7,37z M349.7,35.2
		c0.4-0.3,0.8-0.6,1-1.1s0.4-0.9,0.4-1.4c-0.3-0.2-0.7-0.3-1.1-0.4c-0.4-0.1-0.9-0.2-1.3-0.2c-0.9,0-1.5,0.2-1.9,0.5
		c-0.4,0.3-0.6,0.8-0.6,1.3c0,0.5,0.2,0.9,0.6,1.2c0.4,0.3,0.9,0.5,1.5,0.5C348.7,35.6,349.2,35.4,349.7,35.2z"/>
	<path class="st11" d="M357.4,41.1c-0.9-0.6-1.4-1.3-1.7-2.1l2.2-0.9c0.2,0.6,0.6,1,1.1,1.4c0.5,0.3,1.1,0.5,1.8,0.5
		c1,0,1.7-0.3,2.3-0.9c0.6-0.6,0.8-1.4,0.8-2.4v-1h-0.1c-0.3,0.5-0.8,0.9-1.4,1.2s-1.2,0.4-2,0.4c-0.9,0-1.7-0.2-2.5-0.7
		c-0.8-0.5-1.4-1.1-1.8-2c-0.5-0.8-0.7-1.8-0.7-2.9s0.2-2.1,0.7-2.9c0.5-0.8,1.1-1.5,1.8-2c0.8-0.5,1.6-0.7,2.5-0.7
		c0.7,0,1.4,0.1,2,0.4c0.6,0.3,1.1,0.7,1.4,1.2h0.1v-1.3h2.2v10.1c0,1.2-0.2,2.2-0.7,3c-0.4,0.8-1.1,1.4-1.9,1.9
		c-0.8,0.4-1.7,0.6-2.8,0.6C359.3,42,358.2,41.7,357.4,41.1z M362.2,34.7c0.5-0.3,0.9-0.7,1.1-1.2c0.3-0.5,0.4-1.1,0.4-1.9
		c0-1.1-0.3-1.9-0.9-2.6c-0.6-0.6-1.3-0.9-2.2-0.9c-0.6,0-1.1,0.1-1.6,0.4c-0.5,0.3-0.9,0.7-1.1,1.2c-0.3,0.5-0.4,1.1-0.4,1.9
		c0,0.7,0.1,1.4,0.4,1.9c0.3,0.5,0.7,0.9,1.1,1.2c0.5,0.3,1,0.4,1.6,0.4C361.2,35.1,361.7,35,362.2,34.7z"/>
	<path class="st11" d="M370.6,36.7c-0.8-0.5-1.5-1.2-2-2c-0.5-0.9-0.7-1.8-0.7-2.9c0-1,0.2-2,0.7-2.8c0.5-0.9,1.1-1.6,1.9-2.1
		c0.8-0.5,1.7-0.8,2.8-0.8c1.1,0,2,0.2,2.8,0.7c0.8,0.5,1.4,1.1,1.8,2c0.4,0.8,0.6,1.8,0.6,2.8c0,0.2,0,0.4-0.1,0.7h-8.2
		c0.1,1,0.4,1.8,1.1,2.3c0.6,0.5,1.3,0.8,2.2,0.8c0.7,0,1.2-0.2,1.7-0.5c0.5-0.3,0.9-0.7,1.2-1.2l2,0.9c-0.5,0.9-1.2,1.6-2,2.1
		c-0.8,0.5-1.8,0.8-2.9,0.8C372.4,37.5,371.5,37.2,370.6,36.7z M376.2,30.5c0-0.4-0.1-0.8-0.4-1.1s-0.5-0.7-1-0.9
		c-0.4-0.3-0.9-0.4-1.6-0.4c-0.7,0-1.4,0.2-1.9,0.7s-0.9,1-1.1,1.8H376.2z"/>
	<path class="st11" d="M385.9,22.1h2.4v15h-2.4V22.1z"/>
	<path class="st11" d="M392.2,36.7c-0.8-0.5-1.3-1.2-1.7-2.1l2.1-0.9c0.3,0.6,0.6,1,1.1,1.3s1,0.4,1.6,0.4c0.6,0,1.1-0.1,1.4-0.3
		c0.4-0.2,0.6-0.5,0.6-0.9c0-0.4-0.2-0.7-0.5-0.9c-0.3-0.2-0.9-0.4-1.6-0.6l-1.3-0.3c-0.9-0.2-1.6-0.6-2.1-1.1
		c-0.6-0.5-0.8-1.2-0.8-2c0-0.6,0.2-1.2,0.6-1.7c0.4-0.5,0.9-0.8,1.5-1.1c0.6-0.3,1.3-0.4,2.1-0.4c1,0,1.9,0.2,2.6,0.6
		c0.8,0.4,1.3,1,1.6,1.7l-2,0.9c-0.4-0.8-1.1-1.2-2.2-1.2c-0.5,0-1,0.1-1.3,0.3c-0.4,0.2-0.5,0.5-0.5,0.8c0,0.3,0.1,0.6,0.4,0.8
		c0.3,0.2,0.7,0.4,1.2,0.5l1.6,0.4c1,0.3,1.8,0.7,2.4,1.2s0.8,1.2,0.8,2c0,0.7-0.2,1.3-0.6,1.8s-0.9,0.9-1.6,1.2
		c-0.7,0.3-1.4,0.4-2.2,0.4C394,37.5,393,37.2,392.2,36.7z"/>
	<path class="st11" d="M403.9,36.7c-0.9-0.5-1.5-1.2-2-2s-0.7-1.8-0.7-2.9c0-1.1,0.2-2,0.7-2.9s1.1-1.6,2-2s1.8-0.7,2.9-0.7
		c1.1,0,2,0.3,2.9,0.8c0.9,0.5,1.5,1.2,2,2.1s0.7,1.8,0.7,2.9c0,1.1-0.2,2-0.7,2.9s-1.1,1.6-2,2c-0.9,0.5-1.8,0.7-2.9,0.7
		C405.7,37.5,404.7,37.2,403.9,36.7z M408.4,34.9c0.5-0.3,0.9-0.7,1.2-1.2c0.3-0.5,0.5-1.2,0.5-1.9c0-0.7-0.2-1.4-0.5-1.9
		c-0.3-0.5-0.7-0.9-1.2-1.2c-0.5-0.3-1-0.4-1.6-0.4s-1.1,0.1-1.6,0.4c-0.5,0.3-0.9,0.7-1.2,1.2c-0.3,0.5-0.5,1.2-0.5,1.9
		c0,0.7,0.1,1.4,0.5,1.9c0.3,0.5,0.7,1,1.2,1.2c0.5,0.3,1.1,0.4,1.6,0.4S407.9,35.2,408.4,34.9z"/>
	<path class="st11" d="M414.4,22.1h2.3v15h-2.3V22.1z"/>
	<path class="st11" d="M420.6,37c-0.6-0.3-1.1-0.7-1.4-1.3s-0.5-1.2-0.5-1.9c0-1.1,0.4-2,1.2-2.6c0.8-0.6,1.9-1,3.2-1
		c0.6,0,1.2,0.1,1.7,0.2c0.5,0.1,0.9,0.2,1.2,0.4v-0.5c0-0.7-0.2-1.2-0.7-1.6c-0.5-0.4-1.1-0.6-1.9-0.6c-0.5,0-1.1,0.1-1.5,0.4
		c-0.5,0.2-0.9,0.6-1.2,1l-1.6-1.2c0.5-0.7,1.1-1.2,1.8-1.5c0.8-0.4,1.6-0.5,2.5-0.5c1.6,0,2.8,0.4,3.6,1.1s1.3,1.8,1.3,3.2v6.7H426
		v-1.3h-0.1c-0.3,0.5-0.7,0.8-1.3,1.2s-1.2,0.5-1.9,0.5C421.9,37.5,421.2,37.3,420.6,37z M424.6,35.2c0.4-0.3,0.8-0.6,1-1.1
		s0.4-0.9,0.4-1.4c-0.3-0.2-0.7-0.3-1.1-0.4c-0.4-0.1-0.9-0.2-1.3-0.2c-0.9,0-1.5,0.2-1.9,0.5c-0.4,0.3-0.6,0.8-0.6,1.3
		c0,0.5,0.2,0.9,0.6,1.2c0.4,0.3,0.9,0.5,1.5,0.5C423.6,35.6,424.1,35.4,424.6,35.2z"/>
	<path class="st11" d="M433.6,37.1c-0.4-0.2-0.8-0.4-1-0.6c-0.6-0.6-0.9-1.4-0.9-2.5v-5.5h-1.9v-2h1.9v-3h2.3v3h2.6v2H434v5
		c0,0.6,0.1,1,0.3,1.2c0.2,0.3,0.6,0.4,1.1,0.4c0.2,0,0.4,0,0.6-0.1c0.2-0.1,0.4-0.2,0.6-0.3V37c-0.5,0.2-1,0.3-1.7,0.3
		C434.5,37.3,434,37.2,433.6,37.1z"/>
	<path class="st11" d="M439.1,24.4c-0.3-0.3-0.5-0.7-0.5-1.1s0.2-0.8,0.5-1.1c0.3-0.3,0.7-0.5,1.1-0.5c0.4,0,0.8,0.2,1.1,0.5
		c0.3,0.3,0.5,0.7,0.5,1.1s-0.2,0.8-0.5,1.1s-0.7,0.5-1.1,0.5C439.8,24.9,439.4,24.7,439.1,24.4z M439.1,26.4h2.3v10.7h-2.3V26.4z"
		/>
	<path class="st11" d="M446.3,36.7c-0.9-0.5-1.5-1.2-2-2s-0.7-1.8-0.7-2.9c0-1.1,0.2-2,0.7-2.9s1.1-1.6,2-2s1.8-0.7,2.9-0.7
		c1.1,0,2,0.3,2.9,0.8c0.9,0.5,1.5,1.2,2,2.1s0.7,1.8,0.7,2.9c0,1.1-0.2,2-0.7,2.9s-1.1,1.6-2,2c-0.9,0.5-1.8,0.7-2.9,0.7
		C448.1,37.5,447.1,37.2,446.3,36.7z M450.8,34.9c0.5-0.3,0.9-0.7,1.2-1.2c0.3-0.5,0.5-1.2,0.5-1.9c0-0.7-0.2-1.4-0.5-1.9
		c-0.3-0.5-0.7-0.9-1.2-1.2c-0.5-0.3-1-0.4-1.6-0.4s-1.1,0.1-1.6,0.4c-0.5,0.3-0.9,0.7-1.2,1.2c-0.3,0.5-0.5,1.2-0.5,1.9
		c0,0.7,0.1,1.4,0.5,1.9c0.3,0.5,0.7,1,1.2,1.2c0.5,0.3,1.1,0.4,1.6,0.4S450.3,35.2,450.8,34.9z"/>
	<path class="st11" d="M456.7,26.4h2.2v1.4h0.1c0.3-0.5,0.8-0.9,1.4-1.2c0.6-0.3,1.3-0.5,1.9-0.5c1.3,0,2.3,0.4,3,1.1s1,1.8,1,3.1
		v6.8H464v-6.5c0-0.8-0.2-1.5-0.6-1.8s-1-0.6-1.7-0.6c-0.5,0-1,0.1-1.4,0.4c-0.4,0.3-0.7,0.7-0.9,1.1c-0.2,0.5-0.3,1-0.3,1.5v5.8
		h-2.3V26.4z"/>
</g>
<g>
</g>
<g>
</g>
<g>
</g>
<g>
</g>
<g>
</g>
</svg>
